# xmcd
# Copyright (C) 1995-1998 Ti Kan
#
# Track frame offsets:
#       150
#       13586
#       26051
#       43355
#       57851
#       75604
#       90551
#       106971
#       117982
#       133650
#       145317
#
# Disc length: 2148 seconds
#
# Revision: 0
# Processed by: cddbd v1.5.2PL0 Copyright (c) Steve Scherf et al.
# Submitted via: CD-Transfer v1.0
#
DISCID=9308620b
DTITLE=Matschedonia - Kribiskrabis
DYEAR=12
DGENRE=
TTITLE0=Willkommen In Den Tiroler Bergen
TTITLE1=Kribiskrabis
TTITLE2=Supergeile Zeit
TTITLE3=Nightrider
TTITLE4=Die Sunne Scheint
TTITLE5=Alabama Song
TTITLE6=Baby Blues
TTITLE7=Flippa Joe
TTITLE8=König Der Nacht
TTITLE9=Cicciabella
TTITLE10=Clown
EXTD=
EXTT0=
EXTT1=
EXTT2=
EXTT3=
EXTT4=
EXTT5=
EXTT6=
EXTT7=
EXTT8=
EXTT9=
EXTT10=
PLAYORDER=
